<mxfile host="app.diagrams.net" modified="2023-10-13T23:08:03.319Z" agent="Mozilla/5.0 (Windows NT 10.0; Win64; x64) AppleWebKit/537.36 (KHTML, like Gecko) Chrome/118.0.0.0 Safari/537.36" etag="lQGEKrs871ECpXTWmA3O" version="22.0.4" type="github">
  <diagram name="Page-1" id="j3Q-j5Wdtzv0YPWznBYd">
    <mxGraphModel dx="508" dy="337" grid="1" gridSize="10" guides="1" tooltips="1" connect="1" arrows="1" fold="1" page="1" pageScale="1" pageWidth="850" pageHeight="1100" math="0" shadow="0">
      <root>
        <mxCell id="0" />
        <mxCell id="1" parent="0" />
        <mxCell id="mBe3JbeVVdXJRdi6G_KN-14" value="" style="rounded=0;whiteSpace=wrap;html=1;fillColor=none;dashed=1;dashPattern=8 8;" vertex="1" parent="1">
          <mxGeometry x="80" y="60" width="600" height="370" as="geometry" />
        </mxCell>
        <mxCell id="mBe3JbeVVdXJRdi6G_KN-8" style="edgeStyle=orthogonalEdgeStyle;rounded=0;orthogonalLoop=1;jettySize=auto;html=1;" edge="1" parent="1" source="mBe3JbeVVdXJRdi6G_KN-1" target="mBe3JbeVVdXJRdi6G_KN-3">
          <mxGeometry relative="1" as="geometry" />
        </mxCell>
        <mxCell id="mBe3JbeVVdXJRdi6G_KN-9" style="edgeStyle=orthogonalEdgeStyle;rounded=0;orthogonalLoop=1;jettySize=auto;html=1;entryX=0;entryY=0.5;entryDx=0;entryDy=0;" edge="1" parent="1" source="mBe3JbeVVdXJRdi6G_KN-1" target="mBe3JbeVVdXJRdi6G_KN-5">
          <mxGeometry relative="1" as="geometry" />
        </mxCell>
        <mxCell id="mBe3JbeVVdXJRdi6G_KN-10" style="edgeStyle=orthogonalEdgeStyle;rounded=0;orthogonalLoop=1;jettySize=auto;html=1;entryX=0.5;entryY=0;entryDx=0;entryDy=0;" edge="1" parent="1" source="mBe3JbeVVdXJRdi6G_KN-1" target="mBe3JbeVVdXJRdi6G_KN-4">
          <mxGeometry relative="1" as="geometry">
            <Array as="points">
              <mxPoint x="260" y="280" />
              <mxPoint x="370" y="280" />
            </Array>
          </mxGeometry>
        </mxCell>
        <mxCell id="mBe3JbeVVdXJRdi6G_KN-1" value="Main Computer" style="rounded=0;whiteSpace=wrap;html=1;" vertex="1" parent="1">
          <mxGeometry x="200" y="200" width="120" height="60" as="geometry" />
        </mxCell>
        <mxCell id="mBe3JbeVVdXJRdi6G_KN-2" value="STEM-Nauts subsystem" style="rounded=0;whiteSpace=wrap;html=1;" vertex="1" parent="1">
          <mxGeometry x="93" y="340" width="120" height="60" as="geometry" />
        </mxCell>
        <mxCell id="mBe3JbeVVdXJRdi6G_KN-3" value="Flight Controller" style="rounded=0;whiteSpace=wrap;html=1;" vertex="1" parent="1">
          <mxGeometry x="200" y="490" width="120" height="60" as="geometry" />
        </mxCell>
        <mxCell id="mBe3JbeVVdXJRdi6G_KN-4" value="Trigger subsystem" style="rounded=0;whiteSpace=wrap;html=1;" vertex="1" parent="1">
          <mxGeometry x="310" y="336" width="120" height="60" as="geometry" />
        </mxCell>
        <mxCell id="mBe3JbeVVdXJRdi6G_KN-5" value="Wireless Subsystem" style="rounded=0;whiteSpace=wrap;html=1;" vertex="1" parent="1">
          <mxGeometry x="360" y="200" width="120" height="60" as="geometry" />
        </mxCell>
        <mxCell id="mBe3JbeVVdXJRdi6G_KN-11" style="edgeStyle=orthogonalEdgeStyle;rounded=0;orthogonalLoop=1;jettySize=auto;html=1;entryX=0.5;entryY=0;entryDx=0;entryDy=0;" edge="1" parent="1" source="mBe3JbeVVdXJRdi6G_KN-6" target="mBe3JbeVVdXJRdi6G_KN-1">
          <mxGeometry relative="1" as="geometry" />
        </mxCell>
        <mxCell id="mBe3JbeVVdXJRdi6G_KN-6" value="Power System" style="rounded=0;whiteSpace=wrap;html=1;" vertex="1" parent="1">
          <mxGeometry x="200" y="73" width="120" height="60" as="geometry" />
        </mxCell>
        <mxCell id="mBe3JbeVVdXJRdi6G_KN-7" style="edgeStyle=orthogonalEdgeStyle;rounded=0;orthogonalLoop=1;jettySize=auto;html=1;entryX=0.455;entryY=-0.037;entryDx=0;entryDy=0;entryPerimeter=0;" edge="1" parent="1" target="mBe3JbeVVdXJRdi6G_KN-2">
          <mxGeometry relative="1" as="geometry">
            <mxPoint x="230" y="260" as="sourcePoint" />
            <Array as="points">
              <mxPoint x="260" y="260" />
              <mxPoint x="260" y="280" />
              <mxPoint x="148" y="280" />
            </Array>
          </mxGeometry>
        </mxCell>
        <mxCell id="mBe3JbeVVdXJRdi6G_KN-12" value="Ground Computer" style="rounded=0;whiteSpace=wrap;html=1;" vertex="1" parent="1">
          <mxGeometry x="540" y="200" width="120" height="60" as="geometry" />
        </mxCell>
        <mxCell id="mBe3JbeVVdXJRdi6G_KN-13" value="" style="shape=mxgraph.signs.tech.rss;html=1;pointerEvents=1;fillColor=#000000;strokeColor=none;verticalLabelPosition=bottom;verticalAlign=top;align=center;" vertex="1" parent="1">
          <mxGeometry x="497" y="215.5" width="30" height="29" as="geometry" />
        </mxCell>
      </root>
    </mxGraphModel>
  </diagram>
</mxfile>
